<?xml version="1.0" standalone="no"?>
<!DOCTYPE svg PUBLIC "-//W3C//DTD SVG 20010904//EN"
 "http://www.w3.org/TR/2001/REC-SVG-20010904/DTD/svg10.dtd">
<svg version="1.0" xmlns="http://www.w3.org/2000/svg"
 width="222.000000pt" height="222.000000pt" viewBox="0 0 222.000000 222.000000"
 preserveAspectRatio="xMidYMid meet">
<metadata>
Created by potrace 1.14, written by Peter Selinger 2001-2017
</metadata>
<g transform="translate(0.000000,222.000000) scale(0.100000,-0.100000)"
fill="#000000" stroke="none">
<path d="M956 2200 c-508 -80 -888 -497 -913 -1001 -15 -309 97 -592 321 -807
214 -205 453 -302 746 -302 187 0 336 36 500 121 188 97 362 275 457 464 198
393 129 868 -171 1193 -130 139 -333 259 -521 308 -112 28 -315 40 -419 24z
m294 -117 c0 -15 -17 -136 -84 -608 l-21 -150 -493 -3 c-486 -2 -492 -2 -492
18 0 19 8 20 472 22 l473 3 16 110 c9 61 31 214 49 340 40 296 38 285 61 285
11 0 19 -7 19 -17z m64 -46 c3 -29 13 -128 21 -222 8 -93 29 -325 45 -515 17
-190 32 -349 33 -353 1 -5 29 155 60 355 32 200 62 367 67 372 16 16 37 -2 43
-36 4 -18 16 -86 28 -150 l21 -118 212 -2 c210 -3 211 -3 214 -25 l3 -23 -224
0 c-167 0 -227 3 -235 13 -6 6 -18 55 -28 107 l-18 95 -17 -105 c-10 -58 -34
-208 -53 -335 -49 -311 -42 -285 -76 -285 -34 0 -30 -21 -60 330 -11 124 -31
353 -45 510 -42 467 -41 450 -17 444 16 -5 21 -17 26 -57z m-824 -1347 c11
-11 20 -24 20 -30 0 -15 -32 -12 -54 5 -14 10 -24 12 -38 4 -26 -14 -7 -36 39
-45 69 -13 81 -90 16 -115 -45 -17 -113 12 -113 48 0 18 37 16 44 -3 8 -21 60
-15 64 8 2 11 -7 18 -30 23 -50 11 -78 32 -78 60 0 36 33 65 75 65 22 0 43 -8
55 -20z m176 -75 c18 -49 33 -96 33 -102 1 -23 -36 -13 -47 12 -9 20 -19 25
-47 25 -29 0 -37 -5 -45 -25 -6 -15 -17 -25 -30 -25 -11 0 -20 2 -20 4 0 3 16
50 36 106 35 95 38 101 62 98 23 -3 30 -14 58 -93z m174 75 c0 -17 -7 -20 -46
-20 -41 0 -45 -2 -42 -22 2 -19 10 -24 41 -26 23 -2 37 -8 37 -17 0 -9 -14
-15 -37 -17 -37 -3 -38 -4 -41 -46 -3 -34 -7 -43 -20 -40 -14 3 -17 19 -20
106 l-3 102 66 0 c58 0 65 -2 65 -20z m445 -5 c29 -28 31 -51 9 -83 -13 -19
-14 -28 -4 -53 7 -16 16 -29 20 -29 4 0 21 43 39 95 31 88 35 95 60 95 25 0
29 -7 61 -99 19 -55 31 -103 28 -107 -12 -11 -40 5 -45 26 -8 32 -76 28 -91
-4 -9 -21 -17 -25 -54 -23 -38 2 -45 6 -57 35 -9 18 -22 32 -32 32 -13 0 -19
-9 -21 -32 -2 -25 -8 -33 -23 -33 -18 0 -20 8 -23 83 l-3 82 -29 0 -29 0 -3
-82 c-3 -70 -6 -83 -20 -86 -16 -3 -18 6 -18 82 l0 85 -32 3 c-18 2 -54 1 -80
0 -39 -3 -48 -8 -48 -22 0 -14 9 -20 37 -22 27 -2 39 -8 41 -20 3 -15 -4 -18
-37 -18 -37 0 -41 -2 -41 -25 0 -23 3 -25 51 -25 43 0 50 -3 47 -17 -3 -15
-16 -19 -71 -21 l-67 -3 0 105 0 105 205 1 c206 0 206 0 230 -25z m370 0 c14
-13 25 -29 25 -35 0 -16 -47 -12 -54 5 -8 22 -63 19 -76 -4 -14 -28 -12 -63 6
-89 19 -27 49 -28 71 -2 18 20 53 28 53 11 0 -6 -11 -22 -24 -38 -19 -22 -32
-28 -66 -28 -59 0 -90 37 -90 105 0 42 4 52 31 74 40 34 91 35 124 1z m85 -17
l1 -43 37 43 c23 26 46 42 60 42 30 0 28 -11 -8 -45 -37 -35 -37 -40 -4 -88
26 -38 26 -67 2 -67 -7 0 -24 18 -38 40 -28 45 -47 40 -52 -13 -2 -24 -8 -32
-23 -32 -19 0 -20 8 -23 103 l-3 102 26 0 c23 0 25 -4 25 -42z"/>
<path d="M591 620 c-14 -42 -15 -40 15 -40 22 0 24 3 18 23 -14 47 -21 51 -33
17z"/>
<path d="M1200 640 c0 -28 3 -31 28 -28 21 2 27 8 27 28 0 20 -6 26 -27 28
-25 3 -28 0 -28 -28z"/>
<path d="M1396 628 c-10 -38 -7 -48 15 -48 18 0 20 4 14 28 -9 39 -21 47 -29
20z"/>
</g>
</svg>
